<?xml version="1.0" standalone="no"?>
<!DOCTYPE svg PUBLIC "-//W3C//DTD SVG 20010904//EN"
 "http://www.w3.org/TR/2001/REC-SVG-20010904/DTD/svg10.dtd">
<svg version="1.0" xmlns="http://www.w3.org/2000/svg"
 width="700.000000pt" height="700.000000pt" viewBox="0 0 700.000000 700.000000"
 preserveAspectRatio="xMidYMid meet">
<metadata>
Created by potrace 1.14, written by Peter Selinger 2001-2017
</metadata>
<g transform="translate(0.000000,700.000000) scale(0.100000,-0.100000)"
fill="#000000" stroke="none">
<path d="M721 6989 c-158 -27 -339 -120 -457 -235 -129 -127 -208 -271 -245
-449 -18 -87 -19 -188 -18 -2820 l1 -2730 23 -91 c20 -80 71 -202 107 -259
130 -202 338 -343 573 -389 71 -13 387 -15 2795 -15 1740 0 2737 4 2775 10
292 48 558 264 664 539 65 168 62 -21 58 2985 -1 1502 -6 2744 -10 2760 -40
156 -90 265 -170 370 -112 147 -286 259 -477 309 l-95 25 -2735 -1 c-1565 0
-2758 -4 -2789 -9z"/>
</g>
</svg>
