<?xml version="1.0" encoding="UTF-8"?><svg id="Layer_1" xmlns="http://www.w3.org/2000/svg" xmlns:xlink="http://www.w3.org/1999/xlink" viewBox="0 0 720 324"><defs><style>.cls-1{fill:url(#linear-gradient);}.cls-2{fill:#fff;}</style><linearGradient id="linear-gradient" x1="181.79" y1="49.11" x2="400.22" y2="49.11" gradientUnits="userSpaceOnUse"><stop offset="0" stop-color="#90c740"/><stop offset="1" stop-color="#006838"/></linearGradient></defs><path class="cls-2" d="m64.16,229.14H28.78V52.35h70.76c6.49,0,12.74.84,18.74,2.53,6,1.69,11.61,4.07,16.83,7.15,5.22,3.08,9.99,6.78,14.3,11.1,4.31,4.32,8.01,9.1,11.1,14.36,3.08,5.26,5.46,10.89,7.15,16.89,1.68,6,2.53,12.25,2.53,18.74,0,6.08-.76,12-2.28,17.75-1.52,5.75-3.7,11.22-6.53,16.4-2.84,5.18-6.31,9.95-10.42,14.3-4.11,4.36-8.71,8.14-13.81,11.34l19.6,46.23h-37.6l-15.41-35.63-39.58.25v35.38Zm0-141.41v70.77h35.38c4.85,0,9.41-.93,13.68-2.78,4.27-1.85,8.01-4.38,11.22-7.58,3.2-3.2,5.73-6.96,7.58-11.28,1.85-4.31,2.77-8.89,2.77-13.75s-.92-9.43-2.77-13.75c-1.85-4.32-4.38-8.08-7.58-11.28-3.21-3.2-6.95-5.73-11.22-7.58-4.27-1.85-8.84-2.77-13.68-2.77h-35.38Z"/><path class="cls-2" d="m551.56,229.14h-136.84l75.45-141.41h-75.45v-35.38h136.84l-75.2,141.41h75.2v35.38Z"/><path class="cls-2" d="m691.22,229.14h-121.19V52.35h121.19v35.38h-85.81v35.38h58.07v35.38h-58.07v35.26h85.81v35.38Z"/><path class="cls-2" d="m309.48,91.01c-6.37,0-12.25-2.1-17.04-5.6v37.7h-70.64v-53.23c-4.93,3.89-11.13,6.23-17.88,6.23s-12.63-2.23-17.5-5.94v158.96h35.38v-70.64h70.64v70.64h35.38V84.45c-5,4.1-11.38,6.57-18.34,6.57Z"/><path class="cls-2" d="m378.31,68.04c-6.66,0-12.79-2.29-17.69-6.08v167.18h35.38V61.96c-4.9,3.8-11.03,6.08-17.69,6.08Z"/><path class="cls-1" d="m378.31,16.24c-12.1,0-21.91,9.81-21.91,21.91,0,1.64.19,3.23.54,4.77l-26.98,9.33c-3.15-8.24-11.11-14.11-20.45-14.11-10.88,0-19.88,7.94-21.59,18.33l-62.3-10.73c0-12.09-9.81-21.9-21.91-21.9s-21.91,9.81-21.91,21.91,9.81,21.91,21.91,21.91c9.86,0,18.19-6.51,20.94-15.47l63.18,10.89c1.48,10.66,10.61,18.88,21.68,18.88,12.1,0,21.91-9.81,21.91-21.91,0-.47-.04-.92-.07-1.38l27.95-9.67c3.78,6.6,10.87,11.05,19.01,11.05,12.1,0,21.91-9.81,21.91-21.91s-9.81-21.91-21.91-21.91Z"/><path class="cls-2" d="m28.78,286.26v-27.38h4.04l10.29,14.26h-2.02l10.11-14.26h4.04v27.38h-4.3v-22.27l1.62.44-10.32,14.11h-.44l-10.11-14.11,1.43-.44v22.27h-4.34Z"/><path class="cls-2" d="m66.25,286.26l9.63-27.38h5.37l9.63,27.38h-4.63l-2.09-6.14h-11.13l-2.13,6.14h-4.63Zm8.01-9.99h8.56l-4.85-14.33h1.21l-4.92,14.33Z"/><path class="cls-2" d="m101.86,286.26v-27.38h3.49l15.36,21.2-1.65.26v-21.46h4.3v27.38h-3.49l-15.25-21.35,1.58-.29v21.64h-4.34Z"/><path class="cls-2" d="m147.3,286.7c-2.03,0-3.84-.43-5.42-1.29-1.58-.86-2.82-2.03-3.71-3.53-.89-1.49-1.34-3.2-1.34-5.11v-17.89h4.34v17.71c0,1.2.26,2.26.79,3.2s1.25,1.65,2.17,2.17c.92.51,1.98.77,3.18.77s2.3-.26,3.22-.77,1.64-1.24,2.17-2.17c.53-.93.79-2,.79-3.2v-17.71h4.3v17.89c0,1.91-.44,3.61-1.32,5.11-.88,1.49-2.11,2.67-3.69,3.53s-3.4,1.29-5.46,1.29Z"/><path class="cls-2" d="m171.25,286.26v-27.38h17.82v3.86h-13.49v8.23h12.02v3.86h-12.02v11.43h-4.34Z"/><path class="cls-2" d="m196.37,286.26l9.63-27.38h5.37l9.63,27.38h-4.63l-2.09-6.14h-11.13l-2.13,6.14h-4.63Zm8.01-9.99h8.56l-4.85-14.33h1.21l-4.92,14.33Z"/><path class="cls-2" d="m243.63,286.7c-1.94,0-3.73-.36-5.38-1.06-1.65-.71-3.09-1.7-4.3-2.96-1.21-1.26-2.16-2.75-2.85-4.46s-1.03-3.6-1.03-5.66.34-3.91,1.01-5.64c.67-1.73,1.62-3.22,2.85-4.48,1.22-1.26,2.66-2.24,4.3-2.94,1.64-.7,3.44-1.05,5.4-1.05s3.67.33,5.2.99c1.53.66,2.82,1.53,3.88,2.59,1.05,1.07,1.81,2.22,2.28,3.47l-3.89,1.84c-.59-1.47-1.52-2.66-2.81-3.58-1.29-.92-2.84-1.38-4.65-1.38s-3.42.43-4.81,1.29c-1.4.86-2.48,2.05-3.25,3.56-.77,1.52-1.16,3.3-1.16,5.33s.39,3.82,1.16,5.35c.77,1.53,1.85,2.72,3.25,3.57s3,1.27,4.81,1.27,3.36-.45,4.65-1.36c1.29-.91,2.22-2.09,2.81-3.57l3.89,1.84c-.47,1.23-1.23,2.38-2.28,3.45-1.05,1.08-2.35,1.95-3.88,2.61-1.53.66-3.27.99-5.2.99Z"/><path class="cls-2" d="m272.11,286.26v-23.52h-7.27v-3.86h18.74v3.86h-7.17v23.52h-4.3Z"/><path class="cls-2" d="m304.92,286.7c-2.03,0-3.84-.43-5.42-1.29-1.58-.86-2.82-2.03-3.71-3.53s-1.34-3.2-1.34-5.11v-17.89h4.34v17.71c0,1.2.26,2.26.79,3.2s1.25,1.65,2.17,2.17c.92.51,1.98.77,3.18.77s2.3-.26,3.22-.77,1.64-1.24,2.17-2.17c.53-.93.79-2,.79-3.2v-17.71h4.3v17.89c0,1.91-.44,3.61-1.32,5.11-.88,1.49-2.11,2.67-3.69,3.53-1.58.86-3.4,1.29-5.46,1.29Z"/><path class="cls-2" d="m328.86,286.26v-27.38h9.96c1.84,0,3.45.34,4.85,1.01s2.49,1.65,3.29,2.94c.8,1.29,1.19,2.82,1.19,4.61,0,1.89-.47,3.5-1.42,4.85-.94,1.35-2.21,2.33-3.8,2.94l6.32,11.02h-4.92l-6.72-11.94,2.83,1.65h-7.24v10.29h-4.34Zm4.34-14.15h5.7c1,0,1.87-.2,2.61-.59.74-.39,1.3-.94,1.71-1.64s.61-1.52.61-2.48-.2-1.78-.61-2.48c-.4-.7-.97-1.24-1.71-1.62-.73-.38-1.6-.57-2.61-.57h-5.7v9.37Z"/><path class="cls-2" d="m360.79,286.26v-27.38h4.34v27.38h-4.34Z"/><path class="cls-2" d="m378.77,286.26v-27.38h3.49l15.36,21.2-1.65.26v-21.46h4.3v27.38h-3.49l-15.25-21.35,1.58-.29v21.64h-4.34Z"/><path class="cls-2" d="m426.47,286.7c-1.93,0-3.73-.36-5.38-1.06-1.65-.71-3.1-1.7-4.34-2.96-1.24-1.26-2.2-2.75-2.89-4.46-.69-1.71-1.03-3.6-1.03-5.66s.34-3.91,1.01-5.64c.67-1.73,1.62-3.22,2.85-4.48,1.22-1.26,2.66-2.24,4.3-2.94,1.64-.7,3.44-1.05,5.4-1.05s3.67.33,5.2.99c1.53.66,2.82,1.53,3.88,2.59,1.05,1.07,1.81,2.22,2.28,3.47l-3.86,1.87c-.56-1.49-1.49-2.7-2.79-3.62-1.3-.92-2.87-1.38-4.7-1.38s-3.42.43-4.81,1.29c-1.4.86-2.48,2.05-3.25,3.56-.77,1.52-1.16,3.3-1.16,5.33s.4,3.82,1.19,5.35c.8,1.53,1.89,2.72,3.29,3.57,1.4.85,3,1.27,4.81,1.27,1.52,0,2.91-.31,4.17-.94,1.26-.63,2.27-1.51,3.03-2.65.76-1.14,1.14-2.47,1.14-3.99v-1.87l1.95,1.76h-10.36v-3.68h12.71v2.57c0,2.01-.34,3.8-1.03,5.38-.69,1.58-1.62,2.92-2.79,4.02s-2.52,1.94-4.04,2.5c-1.52.56-3.11.85-4.78.85Z"/><path class="cls-2" d="m464.65,286.26v-27.38h8.97c2.84,0,5.31.57,7.41,1.71,2.09,1.14,3.71,2.74,4.87,4.79,1.15,2.06,1.73,4.45,1.73,7.17s-.58,5.08-1.73,7.15c-1.15,2.07-2.77,3.68-4.87,4.83-2.1,1.15-4.56,1.73-7.41,1.73h-8.97Zm4.34-3.86h4.7c1.93,0,3.62-.4,5.05-1.21,1.43-.81,2.54-1.95,3.33-3.42.78-1.47,1.18-3.21,1.18-5.22s-.4-3.74-1.19-5.2c-.8-1.46-1.91-2.59-3.33-3.4-1.42-.81-3.1-1.21-5.03-1.21h-4.7v19.66Z"/><path class="cls-2" d="m496.39,286.26l9.63-27.38h5.36l9.63,27.38h-4.63l-2.1-6.14h-11.13l-2.13,6.14h-4.63Zm8.01-9.99h8.56l-4.85-14.33h1.21l-4.92,14.33Z"/><path class="cls-2" d="m534.42,286.26v-23.52h-7.28v-3.86h18.74v3.86h-7.16v23.52h-4.3Z"/><path class="cls-2" d="m552.08,286.26l9.63-27.38h5.36l9.63,27.38h-4.63l-2.1-6.14h-11.13l-2.13,6.14h-4.63Zm8.01-9.99h8.56l-4.85-14.33h1.21l-4.92,14.33Z"/><path class="cls-2" d="m601.06,286.26v-27.38h4.34v12.05h12.68v-12.05h4.3v27.38h-4.3v-11.46h-12.68v11.46h-4.34Z"/><path class="cls-2" d="m646.29,286.7c-2.03,0-3.84-.43-5.42-1.29-1.58-.86-2.82-2.03-3.71-3.53-.89-1.49-1.34-3.2-1.34-5.11v-17.89h4.34v17.71c0,1.2.26,2.26.79,3.2.53.93,1.25,1.65,2.17,2.17s1.98.77,3.18.77,2.3-.26,3.22-.77c.92-.51,1.64-1.24,2.17-2.17s.79-2,.79-3.2v-17.71h4.3v17.89c0,1.91-.44,3.61-1.33,5.11-.88,1.49-2.11,2.67-3.69,3.53-1.58.86-3.4,1.29-5.45,1.29Z"/><path class="cls-2" d="m670.24,286.26v-27.38h11.54c1.71,0,3.2.3,4.45.9,1.25.6,2.2,1.46,2.87,2.57.66,1.12.99,2.43.99,3.95,0,1.32-.34,2.53-1.01,3.62-.67,1.09-1.72,1.95-3.14,2.59v-1.84c1.25.49,2.27,1.11,3.05,1.86.78.75,1.36,1.59,1.71,2.52.35.93.53,1.91.53,2.94,0,2.57-.84,4.59-2.52,6.06-1.68,1.47-3.98,2.2-6.89,2.2h-11.58Zm4.34-16.46h7.31c1.17,0,2.12-.34,2.83-1.01.71-.67,1.06-1.56,1.06-2.66s-.35-1.96-1.06-2.57c-.71-.61-1.65-.92-2.83-.92h-7.31v7.17Zm0,12.6h7.57c1.45,0,2.6-.4,3.45-1.19.86-.8,1.29-1.86,1.29-3.18s-.43-2.42-1.29-3.22c-.86-.8-2.01-1.19-3.45-1.19h-7.57v8.78Z"/></svg>