<svg version="1.1" xmlns="http://www.w3.org/2000/svg" viewBox="0 0 80 80" width="80" height="80">
  <!-- svg-source:excalidraw -->
  
  <defs>
    <style class="style-fonts">
      @font-face {
        font-family: "Virgil";
        src: url("https://excalidraw.com/Virgil.woff2");
      }
      @font-face {
        font-family: "Cascadia";
        src: url("https://excalidraw.com/Cascadia.woff2");
      }
    </style>
    
  </defs>
  <rect x="0" y="0" width="80" height="80" fill="#ffffff"></rect><g stroke-linecap="round"><g transform="translate(40 10) rotate(0 0 30)"><path d="M0 0 C7.41 7.41, 14.82 14.82, 30 30 M0 0 C11.39 11.39, 22.79 22.79, 30 30 M30 30 C20.99 39.01, 11.99 48.01, 0 60 M30 30 C21.24 38.76, 12.48 47.52, 0 60 M0 60 C-9.36 50.64, -18.71 41.29, -30 30 M0 60 C-9.91 50.09, -19.81 40.19, -30 30 M-30 30 C-23.83 23.83, -17.67 17.67, 0 0 M-30 30 C-20.08 20.08, -10.16 10.16, 0 0" stroke="#000000" stroke-width="2" fill="none"></path></g></g><mask></mask><g stroke-linecap="round"><g transform="translate(40 25) rotate(0 0 15)"><path d="M0 0 C0 10.75, 0 21.49, 0 30 M0 0 C0 8.92, 0 17.84, 0 30" stroke="#000000" stroke-width="8" fill="none"></path></g></g><mask></mask><g stroke-linecap="round"><g transform="translate(25 40) rotate(0 15 0)"><path d="M0 0 C8.14 0, 16.28 0, 30 0 M0 0 C8.77 0, 17.53 0, 30 0" stroke="#000000" stroke-width="8" fill="none"></path></g></g><mask></mask></svg>