<svg version="1.1" xmlns="http://www.w3.org/2000/svg" viewBox="0 0 336.96347435039024 203.7129881978035" width="336.96347435039024" height="203.7129881978035">
  <!-- svg-source:excalidraw -->
  
  <defs>
    <style class="style-fonts">
      @font-face {
        font-family: "Virgil";
        src: url("https://excalidraw.com/Virgil.woff2");
      }
      @font-face {
        font-family: "Cascadia";
        src: url("https://excalidraw.com/Cascadia.woff2");
      }
    </style>
    
  </defs>
  <rect x="0" y="0" width="336.96347435039024" height="203.7129881978035" fill="#ffffff"></rect><g transform="translate(102 28) rotate(0 17.05555534362793 9.200000000000003)"><text x="0" y="0" font-family="Helvetica, Segoe UI Emoji" font-size="16px" fill="#1e1e1e" text-anchor="start" style="white-space: pre;" direction="ltr" dominant-baseline="text-before-edge">Start</text></g><g transform="translate(175 10) rotate(0 28.622222900390625 18.400000000000006)"><text x="0" y="0" font-family="Helvetica, Segoe UI Emoji" font-size="16px" fill="#1e1e1e" text-anchor="start" style="white-space: pre;" direction="ltr" dominant-baseline="text-before-edge">Inter-</text><text x="0" y="18.4" font-family="Helvetica, Segoe UI Emoji" font-size="16px" fill="#1e1e1e" text-anchor="start" style="white-space: pre;" direction="ltr" dominant-baseline="text-before-edge">mediary</text></g><g transform="translate(261 27) rotate(0 14.222222328186035 9.200000000000003)"><text x="0" y="0" font-family="Helvetica, Segoe UI Emoji" font-size="16px" fill="#1e1e1e" text-anchor="start" style="white-space: pre;" direction="ltr" dominant-baseline="text-before-edge">End</text></g><g transform="translate(10 90) rotate(0 20.600000381469727 9.199999999999989)"><text x="0" y="0" font-family="Helvetica, Segoe UI Emoji" font-size="16px" fill="#1e1e1e" text-anchor="start" style="white-space: pre;" direction="ltr" dominant-baseline="text-before-edge">Catch</text></g><g transform="translate(10 150) rotate(0 22.03333282470703 9.199999999999989)"><text x="0" y="0" font-family="Helvetica, Segoe UI Emoji" font-size="16px" fill="#1e1e1e" text-anchor="start" style="white-space: pre;" direction="ltr" dominant-baseline="text-before-edge">Throw</text></g><g stroke-linecap="round" transform="translate(189.96347435039024 133.7129881978035) rotate(0 30 30)"><path d="M60 30 C60 31.74, 59.85 33.5, 59.54 35.21 C59.24 36.92, 58.78 38.63, 58.19 40.26 C57.6 41.89, 56.85 43.5, 55.98 45 C55.11 46.5, 54.1 47.95, 52.98 49.28 C51.87 50.61, 50.61 51.87, 49.28 52.98 C47.95 54.1, 46.5 55.11, 45 55.98 C43.5 56.85, 41.89 57.6, 40.26 58.19 C38.63 58.78, 36.92 59.24, 35.21 59.54 C33.5 59.85, 31.74 60, 30 60 C28.26 60, 26.5 59.85, 24.79 59.54 C23.08 59.24, 21.37 58.78, 19.74 58.19 C18.11 57.6, 16.5 56.85, 15 55.98 C13.5 55.11, 12.05 54.1, 10.72 52.98 C9.39 51.87, 8.13 50.61, 7.02 49.28 C5.9 47.95, 4.89 46.5, 4.02 45 C3.15 43.5, 2.4 41.89, 1.81 40.26 C1.22 38.63, 0.76 36.92, 0.46 35.21 C0.15 33.5, 0 31.74, 0 30 C0 28.26, 0.15 26.5, 0.46 24.79 C0.76 23.08, 1.22 21.37, 1.81 19.74 C2.4 18.11, 3.15 16.5, 4.02 15 C4.89 13.5, 5.9 12.05, 7.02 10.72 C8.13 9.39, 9.39 8.13, 10.72 7.02 C12.05 5.9, 13.5 4.89, 15 4.02 C16.5 3.15, 18.11 2.4, 19.74 1.81 C21.37 1.22, 23.08 0.76, 24.79 0.46 C26.5 0.15, 28.26 0, 30 0 C31.74 0, 33.5 0.15, 35.21 0.46 C36.92 0.76, 38.63 1.22, 40.26 1.81 C41.89 2.4, 43.5 3.15, 45 4.02 C46.5 4.89, 47.95 5.9, 49.28 7.02 C50.61 8.13, 51.87 9.39, 52.98 10.72 C54.1 12.05, 55.11 13.5, 55.98 15 C56.85 16.5, 57.6 18.11, 58.19 19.74 C58.78 21.37, 59.24 23.08, 59.54 24.79 C59.85 26.5, 59.92 29.13, 60 30 C60.08 30.87, 60.08 29.13, 60 30" stroke="#000000" stroke-width="2" fill="none"></path></g><g stroke-linecap="round" transform="translate(194.96347435039024 138.7129881978035) rotate(0 25 25)"><path d="M50 25 C50 26.45, 49.87 27.92, 49.62 29.34 C49.37 30.77, 48.99 32.19, 48.49 33.55 C48 34.91, 47.37 36.25, 46.65 37.5 C45.93 38.75, 45.08 39.96, 44.15 41.07 C43.22 42.18, 42.18 43.22, 41.07 44.15 C39.96 45.08, 38.75 45.93, 37.5 46.65 C36.25 47.37, 34.91 48, 33.55 48.49 C32.19 48.99, 30.77 49.37, 29.34 49.62 C27.92 49.87, 26.45 50, 25 50 C23.55 50, 22.08 49.87, 20.66 49.62 C19.23 49.37, 17.81 48.99, 16.45 48.49 C15.09 48, 13.75 47.37, 12.5 46.65 C11.25 45.93, 10.04 45.08, 8.93 44.15 C7.82 43.22, 6.78 42.18, 5.85 41.07 C4.92 39.96, 4.07 38.75, 3.35 37.5 C2.63 36.25, 2 34.91, 1.51 33.55 C1.01 32.19, 0.63 30.77, 0.38 29.34 C0.13 27.92, 0 26.45, 0 25 C0 23.55, 0.13 22.08, 0.38 20.66 C0.63 19.23, 1.01 17.81, 1.51 16.45 C2 15.09, 2.63 13.75, 3.35 12.5 C4.07 11.25, 4.92 10.04, 5.85 8.93 C6.78 7.82, 7.82 6.78, 8.93 5.85 C10.04 4.92, 11.25 4.07, 12.5 3.35 C13.75 2.63, 15.09 2, 16.45 1.51 C17.81 1.01, 19.23 0.63, 20.66 0.38 C22.08 0.13, 23.55 0, 25 0 C26.45 0, 27.92 0.13, 29.34 0.38 C30.77 0.63, 32.19 1.01, 33.55 1.51 C34.91 2, 36.25 2.63, 37.5 3.35 C38.75 4.07, 39.96 4.92, 41.07 5.85 C42.18 6.78, 43.22 7.82, 44.15 8.93 C45.08 10.04, 45.93 11.25, 46.65 12.5 C47.37 13.75, 48 15.09, 48.49 16.45 C48.99 17.81, 49.37 19.23, 49.62 20.66 C49.87 22.08, 49.94 24.28, 50 25 C50.06 25.72, 50.06 24.28, 50 25" stroke="#000000" stroke-width="2" fill="none"></path></g><g stroke-linecap="round"><g transform="translate(219.96347435039024 178.7129881978035) rotate(0 -7.5 -15)" fill-rule="evenodd"><path d="M0 0 L0 -30 L-15 -15 L0 0" stroke="none" stroke-width="0" fill="#000000" fill-rule="evenodd"></path><path d="M0 0 C0 -7.46, 0 -14.93, 0 -30 M0 0 C0 -9.17, 0 -18.35, 0 -30 M0 -30 C-3.56 -26.44, -7.12 -22.88, -15 -15 M0 -30 C-4.84 -25.16, -9.67 -20.33, -15 -15 M-15 -15 C-10.76 -10.76, -6.52 -6.52, 0 0 M-15 -15 C-11.49 -11.49, -7.98 -7.98, 0 0 M0 0 C0 0, 0 0, 0 0 M0 0 C0 0, 0 0, 0 0" stroke="#000000" stroke-width="2" fill="none"></path></g></g><mask></mask><g stroke-linecap="round"><g transform="translate(234.96347435039024 178.7129881978035) rotate(0 -7.5 -15)" fill-rule="evenodd"><path d="M0 0 L0 -30 L-15 -15 L0 0" stroke="none" stroke-width="0" fill="#000000" fill-rule="evenodd"></path><path d="M0 0 C0 -11.64, 0 -23.28, 0 -30 M0 0 C0 -11.33, 0 -22.67, 0 -30 M0 -30 C-4.34 -25.66, -8.69 -21.31, -15 -15 M0 -30 C-4.76 -25.24, -9.51 -20.49, -15 -15 M-15 -15 C-9.27 -9.27, -3.55 -3.55, 0 0 M-15 -15 C-10.96 -10.96, -6.93 -6.93, 0 0 M0 0 C0 0, 0 0, 0 0 M0 0 C0 0, 0 0, 0 0" stroke="#000000" stroke-width="2" fill="none"></path></g></g><mask></mask><g stroke-linecap="round" transform="translate(266.96347435039024 131.7129881978035) rotate(0 30 30)"><path d="M60 30 C60 31.74, 59.85 33.5, 59.54 35.21 C59.24 36.92, 58.78 38.63, 58.19 40.26 C57.6 41.89, 56.85 43.5, 55.98 45 C55.11 46.5, 54.1 47.95, 52.98 49.28 C51.87 50.61, 50.61 51.87, 49.28 52.98 C47.95 54.1, 46.5 55.11, 45 55.98 C43.5 56.85, 41.89 57.6, 40.26 58.19 C38.63 58.78, 36.92 59.24, 35.21 59.54 C33.5 59.85, 31.74 60, 30 60 C28.26 60, 26.5 59.85, 24.79 59.54 C23.08 59.24, 21.37 58.78, 19.74 58.19 C18.11 57.6, 16.5 56.85, 15 55.98 C13.5 55.11, 12.05 54.1, 10.72 52.98 C9.39 51.87, 8.13 50.61, 7.02 49.28 C5.9 47.95, 4.89 46.5, 4.02 45 C3.15 43.5, 2.4 41.89, 1.81 40.26 C1.22 38.63, 0.76 36.92, 0.46 35.21 C0.15 33.5, 0 31.74, 0 30 C0 28.26, 0.15 26.5, 0.46 24.79 C0.76 23.08, 1.22 21.37, 1.81 19.74 C2.4 18.11, 3.15 16.5, 4.02 15 C4.89 13.5, 5.9 12.05, 7.02 10.72 C8.13 9.39, 9.39 8.13, 10.72 7.02 C12.05 5.9, 13.5 4.89, 15 4.02 C16.5 3.15, 18.11 2.4, 19.74 1.81 C21.37 1.22, 23.08 0.76, 24.79 0.46 C26.5 0.15, 28.26 0, 30 0 C31.74 0, 33.5 0.15, 35.21 0.46 C36.92 0.76, 38.63 1.22, 40.26 1.81 C41.89 2.4, 43.5 3.15, 45 4.02 C46.5 4.89, 47.95 5.9, 49.28 7.02 C50.61 8.13, 51.87 9.39, 52.98 10.72 C54.1 12.05, 55.11 13.5, 55.98 15 C56.85 16.5, 57.6 18.11, 58.19 19.74 C58.78 21.37, 59.24 23.08, 59.54 24.79 C59.85 26.5, 59.92 29.13, 60 30 C60.08 30.87, 60.08 29.13, 60 30" stroke="#000000" stroke-width="6" fill="none"></path></g><g stroke-linecap="round"><g transform="translate(296.96347435039024 176.7129881978035) rotate(0 -7.5 -15)" fill-rule="evenodd"><path d="M0 0 L0 -30 L-15 -15 L0 0" stroke="none" stroke-width="0" fill="#000000" fill-rule="evenodd"></path><path d="M0 0 C0 -6.13, 0 -12.27, 0 -30 M0 0 C0 -11.06, 0 -22.11, 0 -30 M0 -30 C-5.15 -24.85, -10.3 -19.7, -15 -15 M0 -30 C-5.19 -24.81, -10.37 -19.63, -15 -15 M-15 -15 C-10.57 -10.57, -6.15 -6.15, 0 0 M-15 -15 C-11.77 -11.77, -8.54 -8.54, 0 0 M0 0 C0 0, 0 0, 0 0 M0 0 C0 0, 0 0, 0 0" stroke="#000000" stroke-width="2" fill="none"></path></g></g><mask></mask><g stroke-linecap="round"><g transform="translate(311.96347435039024 176.7129881978035) rotate(0 -7.5 -15)" fill-rule="evenodd"><path d="M0 0 L0 -30 L-15 -15 L0 0" stroke="none" stroke-width="0" fill="#000000" fill-rule="evenodd"></path><path d="M0 0 C0 -11.67, 0 -23.34, 0 -30 M0 0 C0 -8.5, 0 -17, 0 -30 M0 -30 C-5.7 -24.3, -11.4 -18.6, -15 -15 M0 -30 C-3.66 -26.34, -7.31 -22.69, -15 -15 M-15 -15 C-10.19 -10.19, -5.39 -5.39, 0 0 M-15 -15 C-10.75 -10.75, -6.5 -6.5, 0 0 M0 0 C0 0, 0 0, 0 0 M0 0 C0 0, 0 0, 0 0" stroke="#000000" stroke-width="2" fill="none"></path></g></g><mask></mask></svg>