<?xml version="1.0" encoding="UTF-8"?><svg id="Layer_1" xmlns="http://www.w3.org/2000/svg" xmlns:xlink="http://www.w3.org/1999/xlink" viewBox="0 0 96.93 96.93"><defs><style>.cls-1{fill:url(#linear-gradient);}.cls-2{fill:#fff;}</style><linearGradient id="linear-gradient" x1="20.21" y1="78.06" x2="100.62" y2="-6.16" gradientUnits="userSpaceOnUse"><stop offset="0" stop-color="#90c740"/><stop offset="1" stop-color="#006838"/></linearGradient></defs><rect class="cls-1" width="96.93" height="96.93" rx="12" ry="12"/><path class="cls-2" d="m68.73,16.36c-3.77,3.32-4.13,9.07-.81,12.84.45.51.95.95,1.48,1.34l-5.84,10.31c-3.24-1.7-7.33-1.34-10.24,1.22-3.39,2.99-4.01,7.93-1.69,11.64l-22.35,13.76c-3.32-3.76-9.07-4.12-12.84-.8-3.77,3.32-4.13,9.07-.81,12.84s9.07,4.13,12.84.81c3.07-2.71,3.88-7.02,2.28-10.57l22.66-13.96c3.39,2.91,8.49,2.97,11.93-.07,3.77-3.32,4.13-9.07.81-12.84-.13-.14-.27-.28-.4-.41l6.05-10.69c2.99,1.02,6.42.46,8.95-1.78,3.77-3.32,4.13-9.07.81-12.84s-9.07-4.13-12.84-.81Z"/></svg>