<svg version="1.1" xmlns="http://www.w3.org/2000/svg" viewBox="0 0 80 80" width="80" height="80">
  <!-- svg-source:excalidraw -->
  
  <defs>
    <style class="style-fonts">
      @font-face {
        font-family: "Virgil";
        src: url("https://excalidraw.com/Virgil.woff2");
      }
      @font-face {
        font-family: "Cascadia";
        src: url("https://excalidraw.com/Cascadia.woff2");
      }
    </style>
    
  </defs>
  <rect x="0" y="0" width="80" height="80" fill="#ffffff"></rect><g stroke-linecap="round"><g transform="translate(40 10) rotate(0 0 30)"><path d="M0 0 C9.04 9.04, 18.08 18.08, 30 30 M0 0 C9.84 9.84, 19.69 19.69, 30 30 M30 30 C19.58 40.42, 9.16 50.84, 0 60 M30 30 C23.91 36.09, 17.82 42.18, 0 60 M0 60 C-9.33 50.67, -18.66 41.34, -30 30 M0 60 C-6.03 53.97, -12.05 47.95, -30 30 M-30 30 C-23.29 23.29, -16.59 16.59, 0 0 M-30 30 C-18.46 18.46, -6.93 6.93, 0 0" stroke="#000000" stroke-width="2" fill="none"></path></g></g><mask></mask><g stroke-linecap="round"><g transform="translate(30 30) rotate(0 10 10)"><path d="M0 0 C5.71 5.71, 11.42 11.42, 20 20 M0 0 C6.35 6.35, 12.71 12.71, 20 20" stroke="#000000" stroke-width="8" fill="none"></path></g></g><mask></mask><g stroke-linecap="round"><g transform="translate(30 50) rotate(0 10 -10)"><path d="M0 0 C5.46 -5.46, 10.91 -10.91, 20 -20 M0 0 C7.27 -7.27, 14.55 -14.55, 20 -20" stroke="#000000" stroke-width="8" fill="none"></path></g></g><mask></mask></svg>