<svg version="1.1" xmlns="http://www.w3.org/2000/svg" viewBox="0 0 308.44444465637207 178.39999999999998" width="308.44444465637207" height="178.39999999999998">
  <!-- svg-source:excalidraw -->
  
  <defs>
    <style class="style-fonts">
      @font-face {
        font-family: "Virgil";
        src: url("https://excalidraw.com/Virgil.woff2");
      }
      @font-face {
        font-family: "Cascadia";
        src: url("https://excalidraw.com/Cascadia.woff2");
      }
    </style>
    
  </defs>
  <rect x="0" y="0" width="308.44444465637207" height="178.39999999999998" fill="#ffffff"></rect><g transform="translate(96 22) rotate(0 17.05555534362793 9.199999999999989)"><text x="0" y="0" font-family="Helvetica, Segoe UI Emoji" font-size="16px" fill="#1e1e1e" text-anchor="start" style="white-space: pre;" direction="ltr" dominant-baseline="text-before-edge">Start</text></g><g transform="translate(180 10) rotate(0 28.622222900390625 18.400000000000006)"><text x="0" y="0" font-family="Helvetica, Segoe UI Emoji" font-size="16px" fill="#1e1e1e" text-anchor="start" style="white-space: pre;" direction="ltr" dominant-baseline="text-before-edge">Inter-</text><text x="0" y="18.4" font-family="Helvetica, Segoe UI Emoji" font-size="16px" fill="#1e1e1e" text-anchor="start" style="white-space: pre;" direction="ltr" dominant-baseline="text-before-edge">mediary</text></g><g transform="translate(270 30) rotate(0 14.222222328186035 9.199999999999989)"><text x="0" y="0" font-family="Helvetica, Segoe UI Emoji" font-size="16px" fill="#1e1e1e" text-anchor="start" style="white-space: pre;" direction="ltr" dominant-baseline="text-before-edge">End</text></g><g transform="translate(10 90) rotate(0 20.600000381469727 9.199999999999989)"><text x="0" y="0" font-family="Helvetica, Segoe UI Emoji" font-size="16px" fill="#1e1e1e" text-anchor="start" style="white-space: pre;" direction="ltr" dominant-baseline="text-before-edge">Catch</text></g><g transform="translate(10 150) rotate(0 22.03333282470703 9.199999999999989)"><text x="0" y="0" font-family="Helvetica, Segoe UI Emoji" font-size="16px" fill="#1e1e1e" text-anchor="start" style="white-space: pre;" direction="ltr" dominant-baseline="text-before-edge">Throw</text></g><g stroke-linecap="round" transform="translate(90.96347435039024 57.7129881978035) rotate(0 30 30)"><path d="M60 30 C60 31.74, 59.85 33.5, 59.54 35.21 C59.24 36.92, 58.78 38.63, 58.19 40.26 C57.6 41.89, 56.85 43.5, 55.98 45 C55.11 46.5, 54.1 47.95, 52.98 49.28 C51.87 50.61, 50.61 51.87, 49.28 52.98 C47.95 54.1, 46.5 55.11, 45 55.98 C43.5 56.85, 41.89 57.6, 40.26 58.19 C38.63 58.78, 36.92 59.24, 35.21 59.54 C33.5 59.85, 31.74 60, 30 60 C28.26 60, 26.5 59.85, 24.79 59.54 C23.08 59.24, 21.37 58.78, 19.74 58.19 C18.11 57.6, 16.5 56.85, 15 55.98 C13.5 55.11, 12.05 54.1, 10.72 52.98 C9.39 51.87, 8.13 50.61, 7.02 49.28 C5.9 47.95, 4.89 46.5, 4.02 45 C3.15 43.5, 2.4 41.89, 1.81 40.26 C1.22 38.63, 0.76 36.92, 0.46 35.21 C0.15 33.5, 0 31.74, 0 30 C0 28.26, 0.15 26.5, 0.46 24.79 C0.76 23.08, 1.22 21.37, 1.81 19.74 C2.4 18.11, 3.15 16.5, 4.02 15 C4.89 13.5, 5.9 12.05, 7.02 10.72 C8.13 9.39, 9.39 8.13, 10.72 7.02 C12.05 5.9, 13.5 4.89, 15 4.02 C16.5 3.15, 18.11 2.4, 19.74 1.81 C21.37 1.22, 23.08 0.76, 24.79 0.46 C26.5 0.15, 28.26 0, 30 0 C31.74 0, 33.5 0.15, 35.21 0.46 C36.92 0.76, 38.63 1.22, 40.26 1.81 C41.89 2.4, 43.5 3.15, 45 4.02 C46.5 4.89, 47.95 5.9, 49.28 7.02 C50.61 8.13, 51.87 9.39, 52.98 10.72 C54.1 12.05, 55.11 13.5, 55.98 15 C56.85 16.5, 57.6 18.11, 58.19 19.74 C58.78 21.37, 59.24 23.08, 59.54 24.79 C59.85 26.5, 59.92 29.13, 60 30 C60.08 30.87, 60.08 29.13, 60 30" stroke="#000000" stroke-width="2" fill="none"></path></g><g stroke-linecap="round" transform="translate(105.96347435039024 72.7129881978035) rotate(0 15 15)"><path d="M30 15 C30 15.87, 29.92 16.75, 29.77 17.6 C29.62 18.46, 29.39 19.31, 29.1 20.13 C28.8 20.95, 28.42 21.75, 27.99 22.5 C27.56 23.25, 27.05 23.98, 26.49 24.64 C25.93 25.31, 25.31 25.93, 24.64 26.49 C23.98 27.05, 23.25 27.56, 22.5 27.99 C21.75 28.42, 20.95 28.8, 20.13 29.1 C19.31 29.39, 18.46 29.62, 17.6 29.77 C16.75 29.92, 15.87 30, 15 30 C14.13 30, 13.25 29.92, 12.4 29.77 C11.54 29.62, 10.69 29.39, 9.87 29.1 C9.05 28.8, 8.25 28.42, 7.5 27.99 C6.75 27.56, 6.02 27.05, 5.36 26.49 C4.69 25.93, 4.07 25.31, 3.51 24.64 C2.95 23.98, 2.44 23.25, 2.01 22.5 C1.58 21.75, 1.2 20.95, 0.9 20.13 C0.61 19.31, 0.38 18.46, 0.23 17.6 C0.08 16.75, 0 15.87, 0 15 C0 14.13, 0.08 13.25, 0.23 12.4 C0.38 11.54, 0.61 10.69, 0.9 9.87 C1.2 9.05, 1.58 8.25, 2.01 7.5 C2.44 6.75, 2.95 6.02, 3.51 5.36 C4.07 4.69, 4.69 4.07, 5.36 3.51 C6.02 2.95, 6.75 2.44, 7.5 2.01 C8.25 1.58, 9.05 1.2, 9.87 0.9 C10.69 0.61, 11.54 0.38, 12.4 0.23 C13.25 0.08, 14.13 0, 15 0 C15.87 0, 16.75 0.08, 17.6 0.23 C18.46 0.38, 19.31 0.61, 20.13 0.9 C20.95 1.2, 21.75 1.58, 22.5 2.01 C23.25 2.44, 23.98 2.95, 24.64 3.51 C25.31 4.07, 25.93 4.69, 26.49 5.36 C27.05 6.02, 27.56 6.75, 27.99 7.5 C28.42 8.25, 28.8 9.05, 29.1 9.87 C29.39 10.69, 29.62 11.54, 29.77 12.4 C29.92 13.25, 29.96 14.57, 30 15 C30.04 15.43, 30.04 14.57, 30 15" stroke="#000000" stroke-width="2" fill="none"></path></g><g stroke-linecap="round"><g transform="translate(120.96347435039024 87.7129881978035) rotate(0 5 2.5)"><path d="M0 0 C1.67 0.83, 8.33 4.17, 10 5 M0 0 C1.67 0.83, 8.33 4.17, 10 5" stroke="#000000" stroke-width="2" fill="none"></path></g></g><mask></mask><g stroke-linecap="round"><g transform="translate(120.96347435039024 87.7129881978035) rotate(0 2.5 -5)"><path d="M0 0 C0.83 -1.67, 4.17 -8.33, 5 -10 M0 0 C0.83 -1.67, 4.17 -8.33, 5 -10" stroke="#000000" stroke-width="2" fill="none"></path></g></g><mask></mask><g stroke-linecap="round"><g transform="translate(105.96347435039024 87.7129881978035) rotate(0 2.5 0)"><path d="M0 0 C0.83 0, 4.17 0, 5 0 M0 0 C0.83 0, 4.17 0, 5 0" stroke="#000000" stroke-width="2" fill="none"></path></g></g><mask></mask><g stroke-linecap="round"><g transform="translate(120.96347435039024 97.7129881978035) rotate(0 0 2.5)"><path d="M0 0 C0 0.83, 0 4.17, 0 5 M0 0 C0 0.83, 0 4.17, 0 5" stroke="#000000" stroke-width="2" fill="none"></path></g></g><mask></mask><g stroke-linecap="round"><g transform="translate(120.96347435039024 72.7129881978035) rotate(0 0 2.5)"><path d="M0 0 C0 0.83, 0 4.17, 0 5 M0 0 C0 0.83, 0 4.17, 0 5" stroke="#000000" stroke-width="2" fill="none"></path></g></g><mask></mask><g stroke-linecap="round"><g transform="translate(130.96347435039024 87.7129881978035) rotate(0 2.5 0)"><path d="M0 0 C0.83 0, 4.17 0, 5 0 M0 0 C0.83 0, 4.17 0, 5 0" stroke="#000000" stroke-width="2" fill="none"></path></g></g><mask></mask><g stroke-linecap="round" transform="translate(181.96347435039024 58.7129881978035) rotate(0 30 30)"><path d="M60 30 C60 31.74, 59.85 33.5, 59.54 35.21 C59.24 36.92, 58.78 38.63, 58.19 40.26 C57.6 41.89, 56.85 43.5, 55.98 45 C55.11 46.5, 54.1 47.95, 52.98 49.28 C51.87 50.61, 50.61 51.87, 49.28 52.98 C47.95 54.1, 46.5 55.11, 45 55.98 C43.5 56.85, 41.89 57.6, 40.26 58.19 C38.63 58.78, 36.92 59.24, 35.21 59.54 C33.5 59.85, 31.74 60, 30 60 C28.26 60, 26.5 59.85, 24.79 59.54 C23.08 59.24, 21.37 58.78, 19.74 58.19 C18.11 57.6, 16.5 56.85, 15 55.98 C13.5 55.11, 12.05 54.1, 10.72 52.98 C9.39 51.87, 8.13 50.61, 7.02 49.28 C5.9 47.95, 4.89 46.5, 4.02 45 C3.15 43.5, 2.4 41.89, 1.81 40.26 C1.22 38.63, 0.76 36.92, 0.46 35.21 C0.15 33.5, 0 31.74, 0 30 C0 28.26, 0.15 26.5, 0.46 24.79 C0.76 23.08, 1.22 21.37, 1.81 19.74 C2.4 18.11, 3.15 16.5, 4.02 15 C4.89 13.5, 5.9 12.05, 7.02 10.72 C8.13 9.39, 9.39 8.13, 10.72 7.02 C12.05 5.9, 13.5 4.89, 15 4.02 C16.5 3.15, 18.11 2.4, 19.74 1.81 C21.37 1.22, 23.08 0.76, 24.79 0.46 C26.5 0.15, 28.26 0, 30 0 C31.74 0, 33.5 0.15, 35.21 0.46 C36.92 0.76, 38.63 1.22, 40.26 1.81 C41.89 2.4, 43.5 3.15, 45 4.02 C46.5 4.89, 47.95 5.9, 49.28 7.02 C50.61 8.13, 51.87 9.39, 52.98 10.72 C54.1 12.05, 55.11 13.5, 55.98 15 C56.85 16.5, 57.6 18.11, 58.19 19.74 C58.78 21.37, 59.24 23.08, 59.54 24.79 C59.85 26.5, 59.92 29.13, 60 30 C60.08 30.87, 60.08 29.13, 60 30" stroke="#000000" stroke-width="2" fill="none"></path></g><g stroke-linecap="round" transform="translate(186.96347435039024 63.7129881978035) rotate(0 25 25)"><path d="M50 25 C50 26.45, 49.87 27.92, 49.62 29.34 C49.37 30.77, 48.99 32.19, 48.49 33.55 C48 34.91, 47.37 36.25, 46.65 37.5 C45.93 38.75, 45.08 39.96, 44.15 41.07 C43.22 42.18, 42.18 43.22, 41.07 44.15 C39.96 45.08, 38.75 45.93, 37.5 46.65 C36.25 47.37, 34.91 48, 33.55 48.49 C32.19 48.99, 30.77 49.37, 29.34 49.62 C27.92 49.87, 26.45 50, 25 50 C23.55 50, 22.08 49.87, 20.66 49.62 C19.23 49.37, 17.81 48.99, 16.45 48.49 C15.09 48, 13.75 47.37, 12.5 46.65 C11.25 45.93, 10.04 45.08, 8.93 44.15 C7.82 43.22, 6.78 42.18, 5.85 41.07 C4.92 39.96, 4.07 38.75, 3.35 37.5 C2.63 36.25, 2 34.91, 1.51 33.55 C1.01 32.19, 0.63 30.77, 0.38 29.34 C0.13 27.92, 0 26.45, 0 25 C0 23.55, 0.13 22.08, 0.38 20.66 C0.63 19.23, 1.01 17.81, 1.51 16.45 C2 15.09, 2.63 13.75, 3.35 12.5 C4.07 11.25, 4.92 10.04, 5.85 8.93 C6.78 7.82, 7.82 6.78, 8.93 5.85 C10.04 4.92, 11.25 4.07, 12.5 3.35 C13.75 2.63, 15.09 2, 16.45 1.51 C17.81 1.01, 19.23 0.63, 20.66 0.38 C22.08 0.13, 23.55 0, 25 0 C26.45 0, 27.92 0.13, 29.34 0.38 C30.77 0.63, 32.19 1.01, 33.55 1.51 C34.91 2, 36.25 2.63, 37.5 3.35 C38.75 4.07, 39.96 4.92, 41.07 5.85 C42.18 6.78, 43.22 7.82, 44.15 8.93 C45.08 10.04, 45.93 11.25, 46.65 12.5 C47.37 13.75, 48 15.09, 48.49 16.45 C48.99 17.81, 49.37 19.23, 49.62 20.66 C49.87 22.08, 49.94 24.28, 50 25 C50.06 25.72, 50.06 24.28, 50 25" stroke="#000000" stroke-width="2" fill="none"></path></g><g stroke-linecap="round" transform="translate(196.96347435039024 73.7129881978035) rotate(0 15 15)"><path d="M30 15 C30 15.87, 29.92 16.75, 29.77 17.6 C29.62 18.46, 29.39 19.31, 29.1 20.13 C28.8 20.95, 28.42 21.75, 27.99 22.5 C27.56 23.25, 27.05 23.98, 26.49 24.64 C25.93 25.31, 25.31 25.93, 24.64 26.49 C23.98 27.05, 23.25 27.56, 22.5 27.99 C21.75 28.42, 20.95 28.8, 20.13 29.1 C19.31 29.39, 18.46 29.62, 17.6 29.77 C16.75 29.92, 15.87 30, 15 30 C14.13 30, 13.25 29.92, 12.4 29.77 C11.54 29.62, 10.69 29.39, 9.87 29.1 C9.05 28.8, 8.25 28.42, 7.5 27.99 C6.75 27.56, 6.02 27.05, 5.36 26.49 C4.69 25.93, 4.07 25.31, 3.51 24.64 C2.95 23.98, 2.44 23.25, 2.01 22.5 C1.58 21.75, 1.2 20.95, 0.9 20.13 C0.61 19.31, 0.38 18.46, 0.23 17.6 C0.08 16.75, 0 15.87, 0 15 C0 14.13, 0.08 13.25, 0.23 12.4 C0.38 11.54, 0.61 10.69, 0.9 9.87 C1.2 9.05, 1.58 8.25, 2.01 7.5 C2.44 6.75, 2.95 6.02, 3.51 5.36 C4.07 4.69, 4.69 4.07, 5.36 3.51 C6.02 2.95, 6.75 2.44, 7.5 2.01 C8.25 1.58, 9.05 1.2, 9.87 0.9 C10.69 0.61, 11.54 0.38, 12.4 0.23 C13.25 0.08, 14.13 0, 15 0 C15.87 0, 16.75 0.08, 17.6 0.23 C18.46 0.38, 19.31 0.61, 20.13 0.9 C20.95 1.2, 21.75 1.58, 22.5 2.01 C23.25 2.44, 23.98 2.95, 24.64 3.51 C25.31 4.07, 25.93 4.69, 26.49 5.36 C27.05 6.02, 27.56 6.75, 27.99 7.5 C28.42 8.25, 28.8 9.05, 29.1 9.87 C29.39 10.69, 29.62 11.54, 29.77 12.4 C29.92 13.25, 29.96 14.57, 30 15 C30.04 15.43, 30.04 14.57, 30 15" stroke="#000000" stroke-width="2" fill="none"></path></g><g stroke-linecap="round"><g transform="translate(211.96347435039024 88.7129881978035) rotate(0 5 2.5)"><path d="M0 0 C1.67 0.83, 8.33 4.17, 10 5 M0 0 C1.67 0.83, 8.33 4.17, 10 5" stroke="#000000" stroke-width="2" fill="none"></path></g></g><mask></mask><g stroke-linecap="round"><g transform="translate(211.96347435039024 88.7129881978035) rotate(0 2.5 -5)"><path d="M0 0 C0.83 -1.67, 4.17 -8.33, 5 -10 M0 0 C0.83 -1.67, 4.17 -8.33, 5 -10" stroke="#000000" stroke-width="2" fill="none"></path></g></g><mask></mask><g stroke-linecap="round"><g transform="translate(196.96347435039024 88.7129881978035) rotate(0 2.5 0)"><path d="M0 0 C0.83 0, 4.17 0, 5 0 M0 0 C0.83 0, 4.17 0, 5 0" stroke="#000000" stroke-width="2" fill="none"></path></g></g><mask></mask><g stroke-linecap="round"><g transform="translate(211.96347435039024 98.7129881978035) rotate(0 0 2.5)"><path d="M0 0 C0 0.83, 0 4.17, 0 5 M0 0 C0 0.83, 0 4.17, 0 5" stroke="#000000" stroke-width="2" fill="none"></path></g></g><mask></mask><g stroke-linecap="round"><g transform="translate(211.96347435039024 73.7129881978035) rotate(0 0 2.5)"><path d="M0 0 C0 0.83, 0 4.17, 0 5 M0 0 C0 0.83, 0 4.17, 0 5" stroke="#000000" stroke-width="2" fill="none"></path></g></g><mask></mask><g stroke-linecap="round"><g transform="translate(221.96347435039024 88.7129881978035) rotate(0 2.5 0)"><path d="M0 0 C0.83 0, 4.17 0, 5 0 M0 0 C0.83 0, 4.17 0, 5 0" stroke="#000000" stroke-width="2" fill="none"></path></g></g><mask></mask></svg>