<svg version="1.1" xmlns="http://www.w3.org/2000/svg" viewBox="0 0 196.7165606946919 165" width="196.7165606946919" height="165">
  <!-- svg-source:excalidraw -->
  
  <defs>
    <style class="style-fonts">
      @font-face {
        font-family: "Virgil";
        src: url("https://excalidraw.com/Virgil.woff2");
      }
      @font-face {
        font-family: "Cascadia";
        src: url("https://excalidraw.com/Cascadia.woff2");
      }
    </style>
    
  </defs>
  <rect x="0" y="0" width="196.7165606946919" height="165" fill="#ffffff"></rect><g stroke-linecap="round"><g transform="translate(103.125 92.5) rotate(315.563160102975 0 30)"><path d="M0 0 C7.41 7.41, 14.82 14.82, 30 30 M0 0 C11.39 11.39, 22.79 22.79, 30 30 M30 30 C20.99 39.01, 11.99 48.01, 0 60 M30 30 C21.24 38.76, 12.48 47.52, 0 60 M0 60 C-9.36 50.64, -18.71 41.29, -30 30 M0 60 C-9.91 50.09, -19.81 40.19, -30 30 M-30 30 C-23.83 23.83, -17.67 17.67, 0 0 M-30 30 C-20.08 20.08, -10.16 10.16, 0 0" stroke="#000000" stroke-width="2" fill="none"></path></g></g><mask></mask><g stroke-linecap="round"><g transform="translate(103.125 107.5) rotate(359.17480920704514 0 15)"><path d="M0 0 C0 10.75, 0 21.49, 0 30 M0 0 C0 8.92, 0 17.84, 0 30" stroke="#000000" stroke-width="8" fill="none"></path></g></g><mask></mask><g stroke-linecap="round"><g transform="translate(88.125 122.5) rotate(359.17480920704514 15 0)"><path d="M0 0 C8.14 0, 16.28 0, 30 0 M0 0 C8.77 0, 17.53 0, 30 0" stroke="#000000" stroke-width="8" fill="none"></path></g></g><mask></mask><g stroke-linecap="round" transform="translate(10 10) rotate(0 88.35828034734595 72.5)"><path d="M36.25 0 M36.25 0 C62.1 0, 87.95 0, 140.47 0 M36.25 0 C70.91 0, 105.57 0, 140.47 0 M140.47 0 C164.63 0, 176.72 12.08, 176.72 36.25 M140.47 0 C164.63 0, 176.72 12.08, 176.72 36.25 M176.72 36.25 C176.72 62.97, 176.72 89.69, 176.72 108.75 M176.72 36.25 C176.72 61.68, 176.72 87.1, 176.72 108.75 M176.72 108.75 C176.72 132.92, 164.63 145, 140.47 145 M176.72 108.75 C176.72 132.92, 164.63 145, 140.47 145 M140.47 145 C117.93 145, 95.38 145, 36.25 145 M140.47 145 C118.96 145, 97.45 145, 36.25 145 M36.25 145 C12.08 145, 0 132.92, 0 108.75 M36.25 145 C12.08 145, 0 132.92, 0 108.75 M0 108.75 C0 87.12, 0 65.49, 0 36.25 M0 108.75 C0 91.56, 0 74.37, 0 36.25 M0 36.25 C0 12.08, 12.08 0, 36.25 0 M0 36.25 C0 12.08, 12.08 0, 36.25 0" stroke="#000000" stroke-width="4" fill="none"></path></g></svg>