<svg version="1.1" xmlns="http://www.w3.org/2000/svg" viewBox="0 0 321.96347435039 192.7129881978035" width="321.96347435039" height="192.7129881978035">
  <!-- svg-source:excalidraw -->
  
  <defs>
    <style class="style-fonts">
      @font-face {
        font-family: "Virgil";
        src: url("https://excalidraw.com/Virgil.woff2");
      }
      @font-face {
        font-family: "Cascadia";
        src: url("https://excalidraw.com/Cascadia.woff2");
      }
    </style>
    
  </defs>
  <rect x="0" y="0" width="321.96347435039" height="192.7129881978035" fill="#ffffff"></rect><g transform="translate(95.99999999999977 22) rotate(0 17.05555534362793 9.199999999999989)"><text x="0" y="0" font-family="Helvetica, Segoe UI Emoji" font-size="16px" fill="#1e1e1e" text-anchor="start" style="white-space: pre;" direction="ltr" dominant-baseline="text-before-edge">Start</text></g><g transform="translate(169.99999999999977 10) rotate(0 28.622222900390625 18.399999999999977)"><text x="0" y="0" font-family="Helvetica, Segoe UI Emoji" font-size="16px" fill="#1e1e1e" text-anchor="start" style="white-space: pre;" direction="ltr" dominant-baseline="text-before-edge">Inter-</text><text x="0" y="18.4" font-family="Helvetica, Segoe UI Emoji" font-size="16px" fill="#1e1e1e" text-anchor="start" style="white-space: pre;" direction="ltr" dominant-baseline="text-before-edge">mediary</text></g><g transform="translate(256.9999999999998 29) rotate(0 14.222222328186035 9.199999999999989)"><text x="0" y="0" font-family="Helvetica, Segoe UI Emoji" font-size="16px" fill="#1e1e1e" text-anchor="start" style="white-space: pre;" direction="ltr" dominant-baseline="text-before-edge">End</text></g><g transform="translate(10 90) rotate(0 20.600000381469727 9.199999999999989)"><text x="0" y="0" font-family="Helvetica, Segoe UI Emoji" font-size="16px" fill="#1e1e1e" text-anchor="start" style="white-space: pre;" direction="ltr" dominant-baseline="text-before-edge">Catch</text></g><g transform="translate(10 150) rotate(0 22.03333282470703 9.199999999999989)"><text x="0" y="0" font-family="Helvetica, Segoe UI Emoji" font-size="16px" fill="#1e1e1e" text-anchor="start" style="white-space: pre;" direction="ltr" dominant-baseline="text-before-edge">Throw</text></g><g stroke-linecap="round" transform="translate(251.96347435039002 122.7129881978035) rotate(0 30 30)"><path d="M60 30 C60 31.74, 59.85 33.5, 59.54 35.21 C59.24 36.92, 58.78 38.63, 58.19 40.26 C57.6 41.89, 56.85 43.5, 55.98 45 C55.11 46.5, 54.1 47.95, 52.98 49.28 C51.87 50.61, 50.61 51.87, 49.28 52.98 C47.95 54.1, 46.5 55.11, 45 55.98 C43.5 56.85, 41.89 57.6, 40.26 58.19 C38.63 58.78, 36.92 59.24, 35.21 59.54 C33.5 59.85, 31.74 60, 30 60 C28.26 60, 26.5 59.85, 24.79 59.54 C23.08 59.24, 21.37 58.78, 19.74 58.19 C18.11 57.6, 16.5 56.85, 15 55.98 C13.5 55.11, 12.05 54.1, 10.72 52.98 C9.39 51.87, 8.13 50.61, 7.02 49.28 C5.9 47.95, 4.89 46.5, 4.02 45 C3.15 43.5, 2.4 41.89, 1.81 40.26 C1.22 38.63, 0.76 36.92, 0.46 35.21 C0.15 33.5, 0 31.74, 0 30 C0 28.26, 0.15 26.5, 0.46 24.79 C0.76 23.08, 1.22 21.37, 1.81 19.74 C2.4 18.11, 3.15 16.5, 4.02 15 C4.89 13.5, 5.9 12.05, 7.02 10.72 C8.13 9.39, 9.39 8.13, 10.72 7.02 C12.05 5.9, 13.5 4.89, 15 4.02 C16.5 3.15, 18.11 2.4, 19.74 1.81 C21.37 1.22, 23.08 0.76, 24.79 0.46 C26.5 0.15, 28.26 0, 30 0 C31.74 0, 33.5 0.15, 35.21 0.46 C36.92 0.76, 38.63 1.22, 40.26 1.81 C41.89 2.4, 43.5 3.15, 45 4.02 C46.5 4.89, 47.95 5.9, 49.28 7.02 C50.61 8.13, 51.87 9.39, 52.98 10.72 C54.1 12.05, 55.11 13.5, 55.98 15 C56.85 16.5, 57.6 18.11, 58.19 19.74 C58.78 21.37, 59.24 23.08, 59.54 24.79 C59.85 26.5, 59.92 29.13, 60 30 C60.08 30.87, 60.08 29.13, 60 30" stroke="#000000" stroke-width="6" fill="none"></path></g><g stroke-linecap="round"><g transform="translate(266.96347435039 167.7129881978035) rotate(0 15 -15)" fill-rule="evenodd"><path d="M0 0 L10 -30 L20 -10 L30 -30 L20 0 L10 -20 L0 0" stroke="none" stroke-width="0" fill="#000000" fill-rule="evenodd"></path><path d="M0 0 C3.28 -9.85, 6.57 -19.7, 10 -30 M0 0 C2.42 -7.25, 4.83 -14.5, 10 -30 M10 -30 C13.48 -23.05, 16.95 -16.1, 20 -10 M10 -30 C13.67 -22.65, 17.35 -15.3, 20 -10 M20 -10 C23.37 -16.74, 26.74 -23.47, 30 -30 M20 -10 C23.51 -17.02, 27.02 -24.04, 30 -30 M30 -30 C26.5 -19.49, 22.99 -8.98, 20 0 M30 -30 C27.94 -23.82, 25.88 -17.65, 20 0 M20 0 C16.67 -6.65, 13.35 -13.3, 10 -20 M20 0 C17.96 -4.09, 15.91 -8.18, 10 -20 M10 -20 C7.81 -15.62, 5.62 -11.25, 0 0 M10 -20 C6.21 -12.43, 2.43 -4.86, 0 0 M0 0 C0 0, 0 0, 0 0 M0 0 C0 0, 0 0, 0 0" stroke="#000000" stroke-width="2" fill="none"></path></g></g><mask></mask></svg>